<svg width="512" height="512" viewBox="0 0 512 512" fill="none" xmlns="http://www.w3.org/2000/svg">
<g filter="url(#filter0_d_402_6026)">
<path d="M426.667 469.333H138.667C118.864 469.333 99.8721 461.467 85.8694 447.464C71.8666 433.461 64 414.469 64 394.667V106.667C64 89.6928 70.7428 73.4142 82.7452 61.4118C94.7475 49.4095 111.026 42.6667 128 42.6667H426.667C432.325 42.6667 437.751 44.9143 441.752 48.9151C445.752 52.9158 448 58.342 448 64V448C448 453.658 445.752 459.084 441.752 463.085C437.751 467.086 432.325 469.333 426.667 469.333ZM405.333 426.667V362.667H138.667C130.18 362.667 122.04 366.038 116.039 372.039C110.038 378.04 106.667 386.18 106.667 394.667C106.667 403.154 110.038 411.293 116.039 417.294C122.04 423.295 130.18 426.667 138.667 426.667H405.333Z" fill="#76003C"></path>
</g>
<g filter="url(#filter1_d_402_6026)">
<path d="M203.936 202.464C212.227 194.238 224.464 188.969 231.552 179.604C243.182 164.238 236.149 140.94 216.804 136.237C200.178 132.195 188.824 145.786 176.423 154.208C169.66 158.8 163.183 163.859 156.559 168.651C146.924 175.62 134.249 183.575 132.685 196.609C129.712 221.392 150.291 232.082 168.09 244.301C189.051 258.692 208.895 279.499 236.105 268.368C258.982 259.01 260.564 233.451 263.853 212.419C264.987 205.161 267.053 198.026 268.1 190.753C270.013 177.458 270.952 161.31 285.822 155.94C296.411 152.116 303.725 157.644 312.143 163.38C322.958 170.751 333.667 178.287 344.313 185.909C349.902 189.912 357.499 193.562 360.483 200.122C363.339 206.396 359.759 212.574 354.84 216.515C342.982 226.016 330.201 234.533 317.992 243.583C313.633 246.815 305.88 255.34 299.86 252.77C292.646 249.689 292.466 241.393 298.108 236.817C307.052 229.561 316.399 222.648 325.596 215.713C328.766 213.322 334.704 210.233 335.403 205.977C336.21 201.052 330.81 198.226 327.35 195.973C317.59 189.615 308.575 180.548 298.105 175.432C292.069 172.483 284.507 176.689 284.73 183.726C284.976 191.467 294.939 195.704 300.445 199.522C302.178 200.723 306.846 202.923 306.846 205.392C306.846 207.108 304.535 208.378 303.369 209.286C299.699 212.146 295.887 214.836 292.256 217.742C287.064 221.898 281.307 225.803 277.945 231.742C272.112 242.05 274.743 256.212 283.071 264.262C299.636 280.275 316.722 267.269 331.445 256.661C353.188 240.994 389.929 223.546 376.864 191.339C371.627 178.43 355.283 171.889 344.897 163.77C335.902 156.737 326.142 150.513 316.822 143.909C310.745 139.602 303.367 135.906 295.766 135.719C291.261 135.608 286.666 135.412 282.313 136.718C259.999 143.412 254.98 161.104 250.924 181.384C248.626 192.87 246.405 204.372 244.55 215.932C242.887 226.3 242.446 239.211 234.251 246.776C222.274 257.835 209.784 250.72 198.672 243.071C188.678 236.193 178.724 229.253 168.842 222.203C162.081 217.38 150.223 211.732 150.773 201.879C151.195 194.314 158.619 189.913 164.162 186.054C177.979 176.436 191.205 162.878 206.275 155.36C211.423 152.793 217.012 156.21 218.634 161.475C220.101 166.233 215.323 169.793 212.124 172.314C203.294 179.271 194.16 185.873 185.219 192.706C181.633 195.446 173.814 199.887 177.383 205.383C179.542 208.707 184.342 211.082 187.559 213.298C194.44 218.039 201.278 222.886 208.03 227.808C211.382 230.252 215.195 234.158 219.728 233.336C226.06 232.188 229.735 224.487 226.245 218.883C222.236 212.445 210.35 206.427 203.936 202.464Z" fill="white"></path>
</g>
<defs>
<filter id="filter0_d_402_6026" x="46" y="42.6667" width="402" height="448.667" filterUnits="userSpaceOnUse" color-interpolation-filters="sRGB">
<feFlood flood-opacity="0" result="BackgroundImageFix"></feFlood>
<feColorMatrix in="SourceAlpha" type="matrix" values="0 0 0 0 0 0 0 0 0 0 0 0 0 0 0 0 0 0 127 0" result="hardAlpha"></feColorMatrix>
<feOffset dx="-16" dy="20"></feOffset>
<feGaussianBlur stdDeviation="1"></feGaussianBlur>
<feComposite in2="hardAlpha" operator="out"></feComposite>
<feColorMatrix type="matrix" values="0 0 0 0 0.241667 0 0 0 0 0.0352431 0 0 0 0 0.140204 0 0 0 1 0"></feColorMatrix>
<feBlend mode="normal" in2="BackgroundImageFix" result="effect1_dropShadow_402_6026"></feBlend>
<feBlend mode="normal" in="SourceGraphic" in2="effect1_dropShadow_402_6026" result="shape"></feBlend>
</filter>
<filter id="filter1_d_402_6026" x="128.397" y="135.503" width="251.206" height="148.263" filterUnits="userSpaceOnUse" color-interpolation-filters="sRGB">
<feFlood flood-opacity="0" result="BackgroundImageFix"></feFlood>
<feColorMatrix in="SourceAlpha" type="matrix" values="0 0 0 0 0 0 0 0 0 0 0 0 0 0 0 0 0 0 127 0" result="hardAlpha"></feColorMatrix>
<feOffset dx="-4" dy="12"></feOffset>
<feComposite in2="hardAlpha" operator="out"></feComposite>
<feColorMatrix type="matrix" values="0 0 0 0 0.245833 0 0 0 0 0.036875 0 0 0 0 0.143125 0 0 0 1 0"></feColorMatrix>
<feBlend mode="normal" in2="BackgroundImageFix" result="effect1_dropShadow_402_6026"></feBlend>
<feBlend mode="normal" in="SourceGraphic" in2="effect1_dropShadow_402_6026" result="shape"></feBlend>
</filter>
</defs>
</svg>
